<mxfile host="app.diagrams.net" agent="Mozilla/5.0 (Windows NT 10.0; Win64; x64) AppleWebKit/537.36 (KHTML, like Gecko) Chrome/128.0.0.0 Safari/537.36" version="24.7.10">
  <diagram name="Page-1" id="WLs6gspiNnLt0iSCYCjH">
    <mxGraphModel dx="1050" dy="562" grid="1" gridSize="10" guides="1" tooltips="1" connect="1" arrows="1" fold="1" page="1" pageScale="1" pageWidth="850" pageHeight="1100" math="0" shadow="0">
      <root>
        <mxCell id="0" />
        <mxCell id="1" parent="0" />
        <mxCell id="ScvnmLPW_gc2dXJXKrL5-5" value="" style="edgeStyle=orthogonalEdgeStyle;rounded=0;orthogonalLoop=1;jettySize=auto;html=1;" parent="1" source="ScvnmLPW_gc2dXJXKrL5-1" target="ScvnmLPW_gc2dXJXKrL5-2" edge="1">
          <mxGeometry relative="1" as="geometry" />
        </mxCell>
        <mxCell id="ScvnmLPW_gc2dXJXKrL5-1" value="&lt;font style=&quot;font-size: 19px;&quot;&gt;WebForm&lt;/font&gt;" style="rounded=1;whiteSpace=wrap;html=1;" parent="1" vertex="1">
          <mxGeometry x="80" y="250" width="120" height="60" as="geometry" />
        </mxCell>
        <mxCell id="ScvnmLPW_gc2dXJXKrL5-6" style="edgeStyle=orthogonalEdgeStyle;rounded=0;orthogonalLoop=1;jettySize=auto;html=1;" parent="1" source="ScvnmLPW_gc2dXJXKrL5-2" edge="1">
          <mxGeometry relative="1" as="geometry">
            <mxPoint x="180" y="390" as="targetPoint" />
            <Array as="points">
              <mxPoint x="340" y="390" />
            </Array>
          </mxGeometry>
        </mxCell>
        <mxCell id="S38IMnhmS93CuPzTer3h-3" style="edgeStyle=orthogonalEdgeStyle;rounded=0;orthogonalLoop=1;jettySize=auto;html=1;entryX=0.5;entryY=0;entryDx=0;entryDy=0;curved=1;exitX=0.965;exitY=0.785;exitDx=0;exitDy=0;exitPerimeter=0;" edge="1" parent="1" source="ScvnmLPW_gc2dXJXKrL5-2" target="S38IMnhmS93CuPzTer3h-2">
          <mxGeometry relative="1" as="geometry" />
        </mxCell>
        <mxCell id="S38IMnhmS93CuPzTer3h-4" value="&lt;b style=&quot;font-size: 15px;&quot;&gt;&lt;font style=&quot;font-size: 15px;&quot;&gt;DELETE&lt;/font&gt;&lt;/b&gt;&lt;div style=&quot;font-size: 15px;&quot;&gt;&lt;b&gt;&lt;font style=&quot;font-size: 15px;&quot;&gt;CORRECT&lt;/font&gt;&lt;/b&gt;&lt;/div&gt;&lt;div style=&quot;font-size: 15px;&quot;&gt;&lt;b&gt;&lt;font style=&quot;font-size: 15px;&quot;&gt;DO NOT SELL&lt;/font&gt;&lt;/b&gt;&lt;/div&gt;&lt;div style=&quot;font-size: 15px;&quot;&gt;&lt;b style=&quot;&quot;&gt;&lt;font style=&quot;font-size: 15px;&quot;&gt;NON DISCLOSURE&lt;/font&gt;&lt;/b&gt;&lt;/div&gt;" style="edgeLabel;html=1;align=center;verticalAlign=middle;resizable=0;points=[];" vertex="1" connectable="0" parent="S38IMnhmS93CuPzTer3h-3">
          <mxGeometry x="0.543" y="2" relative="1" as="geometry">
            <mxPoint as="offset" />
          </mxGeometry>
        </mxCell>
        <mxCell id="ScvnmLPW_gc2dXJXKrL5-2" value="&lt;font style=&quot;font-size: 19px;&quot;&gt;OneTrust&lt;/font&gt;" style="ellipse;whiteSpace=wrap;html=1;aspect=fixed;" parent="1" vertex="1">
          <mxGeometry x="300" y="240" width="80" height="80" as="geometry" />
        </mxCell>
        <mxCell id="ScvnmLPW_gc2dXJXKrL5-4" value="" style="edgeStyle=orthogonalEdgeStyle;rounded=0;orthogonalLoop=1;jettySize=auto;html=1;" parent="1" source="ScvnmLPW_gc2dXJXKrL5-3" target="ScvnmLPW_gc2dXJXKrL5-1" edge="1">
          <mxGeometry relative="1" as="geometry" />
        </mxCell>
        <mxCell id="ScvnmLPW_gc2dXJXKrL5-3" value="User" style="text;html=1;align=center;verticalAlign=middle;whiteSpace=wrap;rounded=0;fillColor=#dae8fc;perimeterSpacing=5;strokeWidth=3;strokeColor=#6c8ebf;" parent="1" vertex="1">
          <mxGeometry x="110" y="380" width="60" height="30" as="geometry" />
        </mxCell>
        <mxCell id="ScvnmLPW_gc2dXJXKrL5-7" value="" style="shape=cylinder3;whiteSpace=wrap;html=1;boundedLbl=1;backgroundOutline=1;size=15;" parent="1" vertex="1">
          <mxGeometry x="560" y="140" width="60" height="80" as="geometry" />
        </mxCell>
        <mxCell id="ScvnmLPW_gc2dXJXKrL5-8" value="" style="ellipse;shape=cloud;whiteSpace=wrap;html=1;" parent="1" vertex="1">
          <mxGeometry x="543.5" y="240" width="100" height="80" as="geometry" />
        </mxCell>
        <mxCell id="ScvnmLPW_gc2dXJXKrL5-9" value="Amazon S3" style="sketch=0;outlineConnect=0;fontColor=#232F3E;gradientColor=none;strokeColor=#ffffff;fillColor=#232F3E;dashed=0;verticalLabelPosition=middle;verticalAlign=bottom;align=center;html=1;whiteSpace=wrap;fontSize=10;fontStyle=1;spacing=3;shape=mxgraph.aws4.productIcon;prIcon=mxgraph.aws4.s3;" parent="1" vertex="1">
          <mxGeometry x="550" y="370" width="80" height="100" as="geometry" />
        </mxCell>
        <mxCell id="ScvnmLPW_gc2dXJXKrL5-10" value="" style="shape=image;html=1;verticalAlign=top;verticalLabelPosition=bottom;labelBackgroundColor=#ffffff;imageAspect=0;aspect=fixed;image=https://cdn2.iconfinder.com/data/icons/whcompare-servers-web-hosting/50/sftp-128.png" parent="1" vertex="1">
          <mxGeometry x="546" y="490" width="84" height="84" as="geometry" />
        </mxCell>
        <mxCell id="ScvnmLPW_gc2dXJXKrL5-11" value="" style="shape=mxgraph.signs.nature.snowflake;html=1;pointerEvents=1;fillColor=#000000;strokeColor=none;verticalLabelPosition=bottom;verticalAlign=top;align=center;" parent="1" vertex="1">
          <mxGeometry x="560" y="40" width="67" height="70" as="geometry" />
        </mxCell>
        <mxCell id="ScvnmLPW_gc2dXJXKrL5-12" value="" style="swimlane;startSize=0;" parent="1" vertex="1">
          <mxGeometry x="520" y="30" width="160" height="570" as="geometry" />
        </mxCell>
        <mxCell id="ScvnmLPW_gc2dXJXKrL5-13" style="edgeStyle=orthogonalEdgeStyle;rounded=0;orthogonalLoop=1;jettySize=auto;html=1;entryX=0.008;entryY=0.438;entryDx=0;entryDy=0;entryPerimeter=0;startArrow=classicThin;startFill=1;" parent="1" source="ScvnmLPW_gc2dXJXKrL5-2" target="ScvnmLPW_gc2dXJXKrL5-12" edge="1">
          <mxGeometry relative="1" as="geometry" />
        </mxCell>
        <mxCell id="S38IMnhmS93CuPzTer3h-1" value="" style="rounded=0;whiteSpace=wrap;html=1;" vertex="1" parent="1">
          <mxGeometry x="80" y="800" width="700" height="160" as="geometry" />
        </mxCell>
        <mxCell id="S38IMnhmS93CuPzTer3h-2" value="&lt;b style=&quot;font-size: 19px;&quot;&gt;REQUEST&lt;/b&gt;" style="text;html=1;align=center;verticalAlign=middle;whiteSpace=wrap;rounded=0;" vertex="1" parent="1">
          <mxGeometry x="385" y="770" width="60" height="30" as="geometry" />
        </mxCell>
        <mxCell id="S38IMnhmS93CuPzTer3h-5" value="&lt;font style=&quot;font-size: 15px;&quot;&gt;Request Type&lt;/font&gt;" style="text;html=1;align=center;verticalAlign=middle;whiteSpace=wrap;rounded=0;" vertex="1" parent="1">
          <mxGeometry x="120" y="840" width="150" height="30" as="geometry" />
        </mxCell>
        <mxCell id="S38IMnhmS93CuPzTer3h-6" value="&lt;font style=&quot;font-size: 15px;&quot;&gt;Verification ID&lt;/font&gt;" style="text;html=1;align=center;verticalAlign=middle;whiteSpace=wrap;rounded=0;" vertex="1" parent="1">
          <mxGeometry x="120" y="880" width="150" height="30" as="geometry" />
        </mxCell>
        <mxCell id="S38IMnhmS93CuPzTer3h-10" value="&lt;font style=&quot;font-size: 15px;&quot;&gt;WORKFLOW&lt;/font&gt;" style="shape=hexagon;perimeter=hexagonPerimeter2;whiteSpace=wrap;html=1;fixedSize=1;" vertex="1" parent="1">
          <mxGeometry x="330" y="820" width="150" height="100" as="geometry" />
        </mxCell>
        <mxCell id="S38IMnhmS93CuPzTer3h-11" value="&lt;font style=&quot;font-size: 15px;&quot;&gt;Sub Task&lt;/font&gt;" style="text;html=1;align=center;verticalAlign=middle;whiteSpace=wrap;rounded=0;" vertex="1" parent="1">
          <mxGeometry x="546" y="840" width="150" height="30" as="geometry" />
        </mxCell>
        <mxCell id="S38IMnhmS93CuPzTer3h-12" value="&lt;font style=&quot;font-size: 15px;&quot;&gt;Automation&lt;/font&gt;" style="text;html=1;align=center;verticalAlign=middle;whiteSpace=wrap;rounded=0;" vertex="1" parent="1">
          <mxGeometry x="550" y="880" width="150" height="30" as="geometry" />
        </mxCell>
      </root>
    </mxGraphModel>
  </diagram>
</mxfile>
